<svg width="660" height="417" viewBox="0 0 660 417" fill="none" xmlns="http://www.w3.org/2000/svg">
<rect x="1.5" y="1.5" width="657" height="414" rx="6.5" fill="black" fill-opacity="0.4" stroke="#A5B4FC" stroke-width="3"/>
<path d="M165.491 240.112C168.681 235.646 175.319 235.646 178.509 240.112L237.44 322.6C241.223 327.894 237.438 335.25 230.931 335.25H113.069C106.562 335.25 102.777 327.894 106.56 322.6L165.491 240.112Z" fill="#A5B4FC"/>
<path d="M165.459 239.788C168.646 235.263 175.354 235.263 178.541 239.788L195.165 263.394C198.898 268.694 195.107 276 188.624 276H155.376C148.893 276 145.102 268.694 148.835 263.394L165.459 239.788Z" fill="white"/>
<path d="M392.189 100.056C395.313 94.984 402.687 94.984 405.811 100.056L543.041 322.804C546.324 328.134 542.49 335 536.23 335H261.77C255.51 335 251.676 328.134 254.959 322.804L392.189 100.056Z" fill="#A5B4FC"/>
<path d="M392.116 99.6248C395.214 94.393 402.786 94.393 405.884 99.6248L426.49 134.424C429.648 139.757 425.804 146.5 419.606 146.5H378.394C372.196 146.5 368.352 139.757 371.51 134.424L392.116 99.6248Z" fill="white"/>
<path d="M366 145L415 115L445.816 165H433H366V145Z" fill="white"/>
<path d="M431.816 145L383 115L352.188 165H364.816H431.816V145Z" fill="white"/>
<path d="M399.32 201L382 171H416.641L399.32 201Z" fill="white"/>
<path d="M432.32 201L415 171H449.641L432.32 201Z" fill="white"/>
<path d="M366.32 201L348.477 171H383.641L366.32 201Z" fill="white"/>
<path d="M359.594 153H438.41L449.5 171H348.488L359.594 153Z" fill="white"/>
<path d="M152 263.8L182 245L204.867 277H196.49H152V263.8Z" fill="white"/>
<path d="M192 263.8L162 245L139.152 277H147.406H192V263.8Z" fill="white"/>
<path d="M172.5 301L161 281H184L172.5 301Z" fill="white"/>
<path d="M196 301L184 281H207.72L196 301Z" fill="white"/>
<path d="M148.686 301L136.275 281H161L148.686 301Z" fill="white"/>
<path d="M145.57 268H198.426L207.723 281H136.285L145.57 268Z" fill="white"/>
</svg>
