<svg width="200" height="200" viewBox="0 0 200 200" fill="none" xmlns="http://www.w3.org/2000/svg">
<g clip-path="url(#clip0_202_1811)">
<path d="M80.5007 26.8008C80.5007 26.8008 56.3607 32.0208 58.1207 63.7208C59.8807 95.4208 54.2207 104.361 54.2207 104.361L60.4207 102.641L80.4807 116.381L134.561 105.561L143.041 108.081L145.661 102.161C145.661 102.161 148.641 105.361 151.601 105.541C151.601 105.541 148.841 91.3008 149.361 84.9408C150.461 71.6208 144.061 52.2408 144.061 52.2408L80.4607 26.8008H80.5007Z" fill="#373864"/>
<path d="M179.581 175.601C165.941 171.021 135.521 155.701 125.181 150.421C124.381 150.021 123.721 149.661 123.181 149.401C122.221 148.901 121.661 148.621 121.661 148.621H80.521C80.521 148.621 79.981 148.901 79.001 149.401C78.461 149.681 77.781 150.021 77.001 150.421C75.481 151.201 73.541 152.181 71.281 153.321C58.101 159.961 34.241 171.701 22.601 175.601C6.04102 181.181 6.04102 209.461 6.04102 209.461H196.141C196.141 209.461 196.141 181.181 179.581 175.601V175.601Z" fill="#D6ABF8"/>
<path d="M119.08 129.039H82.84L80.5 148.599C80.5 152.439 89.72 155.559 101.08 155.559C112.44 155.559 121.66 152.439 121.66 148.599L119.1 129.039H119.08Z" fill="#1F2039"/>
<path d="M67.0192 61.1989C67.0192 61.1989 68.3392 50.4389 77.4592 48.4389C77.4592 48.4389 141.599 48.4389 128.739 48.4389C128.739 48.4389 137.079 48.4389 138.819 60.4389C139.079 62.2389 141.739 80.6989 141.579 87.9589C141.479 92.6189 143.299 90.1589 143.299 90.1589C143.299 90.1589 145.259 82.7189 145.579 72.9589C146.179 54.3589 143.759 22.3789 104.539 22.3789C65.3192 22.3789 61.6992 45.9189 61.6992 76.2789L63.1392 91.2189C63.1992 91.8189 63.6992 92.2589 64.2992 92.2589C65.4392 92.2589 66.9992 61.1989 66.9992 61.1989H67.0192Z" fill="#C1735C"/>
<path d="M137.46 57.3186C138.222 57.3186 138.84 56.7007 138.84 55.9386C138.84 55.1764 138.222 54.5586 137.46 54.5586C136.698 54.5586 136.08 55.1764 136.08 55.9386C136.08 56.7007 136.698 57.3186 137.46 57.3186Z" fill="#FF9988"/>
<path d="M81.2793 142.119C81.2793 142.119 109.379 144.699 119.279 132.379V118.219L83.6593 121.639L81.2793 142.119V142.119Z" fill="#1F2039"/>
<path fill-rule="evenodd" clip-rule="evenodd" d="M104.036 134.72C123.054 134.72 139.05 118.198 143.695 95.7856C144.559 95.551 144.954 95.3584 144.954 95.3584C149.154 93.1218 151.414 87.9497 150.774 81.22C150.332 76.5758 146.824 75.5455 144.692 75.353C142.009 49.7484 124.829 30 104.036 30C82.8133 30 65.3552 50.5716 63.2323 76.9449C62.2252 76.9268 56.2352 77.0803 56.0154 83.2799C55.7754 90.0496 58.3554 95.0619 62.6754 97.0389C62.6754 97.0389 63.3244 97.3066 64.7647 97.5343C69.861 119.052 85.5149 134.72 104.036 134.72Z" fill="#1F2039"/>
<path d="M122.119 86.4781C123.456 86.4781 124.539 84.5977 124.539 82.2781C124.539 79.9585 123.456 78.0781 122.119 78.0781C120.783 78.0781 119.699 79.9585 119.699 82.2781C119.699 84.5977 120.783 86.4781 122.119 86.4781Z" fill="#A5B4FC"/>
<path d="M85.8204 85.6188C87.1569 85.6188 88.2404 83.7383 88.2404 81.4187C88.2404 79.0992 87.1569 77.2188 85.8204 77.2188C84.4839 77.2188 83.4004 79.0992 83.4004 81.4187C83.4004 83.7383 84.4839 85.6188 85.8204 85.6188Z" fill="#A5B4FC"/>
<path d="M130.721 72.0605C123.961 70.5205 118.941 72.0606 115.881 72.6606C114.581 72.9206 114.181 71.3006 114.181 71.3006C113.861 70.2206 115.281 69.3606 116.321 69.1206C119.781 68.2606 124.221 67.6605 130.981 69.5605C132.281 69.9205 132.421 71.0005 132.421 71.0005C132.341 72.2005 131.601 72.2805 130.721 72.0605V72.0605Z" fill="#A5B4FC"/>
<path d="M76.8006 71.7784C83.6206 70.4984 88.5806 72.2584 91.6206 72.9584C92.9206 73.2584 93.3606 71.6784 93.3606 71.6784C93.7206 70.6184 92.3406 69.6984 91.3206 69.3984C87.9006 68.4184 83.4806 67.6384 76.6406 69.2584C75.3206 69.5784 75.1406 70.6384 75.1406 70.6384C75.1606 71.8384 75.9006 71.9384 76.8006 71.7784V71.7784Z" fill="#A5B4FC"/>
<path d="M132.261 25.7815C104.821 4.08145 80.5008 26.8015 80.5008 26.8015C56.4408 31.2015 59.8608 66.7215 60.4408 70.5215C61.0208 74.3015 61.7608 76.9215 61.7608 76.9215C62.2808 76.9415 62.7608 76.9215 63.2208 76.8215L65.2608 91.4615C65.4008 91.9815 66.1808 92.0215 66.3608 91.4615C66.5408 91.2615 67.1008 82.7015 67.6408 73.7615C72.2008 67.0215 72.0008 51.2415 80.5008 44.1815C84.6608 40.7215 90.5008 43.4415 90.5008 43.4415C90.5008 43.4415 94.8608 35.7415 105.241 40.2215C114.581 44.2415 126.061 69.5815 138.721 75.6015C139.221 83.8415 139.721 91.2815 139.881 91.4815C140.061 92.0415 140.841 92.0015 140.981 91.4815L143.021 76.8615L148.821 73.8414C148.821 73.8414 151.441 37.7615 132.221 25.8015L132.261 25.7815Z" fill="#373864"/>
<path d="M179.58 175.602C172.38 173.182 160.5 167.762 149.36 162.422L118.28 173.442V203.182H116.28V174.142L109.84 176.422V209.442H196.14C196.14 209.442 196.14 181.162 179.58 175.582V175.602Z" fill="#512D6D"/>
<path d="M134.48 150.801C124.64 147.421 109.84 176.421 109.84 176.421L116.28 174.141V203.181H118.28V173.441L149.36 162.421L149.48 162.381C149.48 162.381 144.34 154.181 134.5 150.801H134.48Z" fill="#B8B8B8"/>
<path d="M86.42 174.279L81.8 202.379L79.82 202.059L84.5 173.599L52.86 162.379C41.7 167.739 29.78 173.179 22.56 175.599C6 181.179 6 209.459 6 209.459H92.06L92.5 176.439L86.42 174.279V174.279Z" fill="#512D6D"/>
<path d="M67.8609 150.801C58.0409 154.161 52.9009 162.341 52.8809 162.381L84.5209 173.601L79.8409 202.061L81.8209 202.381L86.4409 174.281L92.5209 176.441C92.5209 176.441 77.7009 147.441 67.8809 150.821L67.8609 150.801Z" fill="#B8B8B8"/>
</g>
<rect x="0.5" y="0.5" width="199" height="199" rx="99.5" stroke="black"/>
<defs>
<clipPath id="clip0_202_1811">
<rect width="200" height="200" rx="100" fill="white"/>
</clipPath>
</defs>
</svg>
