<svg width="34" height="34" viewBox="0 0 34 34" fill="none" xmlns="http://www.w3.org/2000/svg">
<g filter="url(#filter0_dd_262_2786)">
<path d="M29 13C29 19.6274 23.6274 25 17 25C10.3726 25 5 19.6274 5 13C5 6.37258 10.3726 1 17 1C23.6274 1 29 6.37258 29 13Z" fill="#FF2F2F"/>
<path d="M13 9L21 17M21 9L13 17M29 13C29 19.6274 23.6274 25 17 25C10.3726 25 5 19.6274 5 13C5 6.37258 10.3726 1 17 1C23.6274 1 29 6.37258 29 13Z" stroke="white" stroke-width="2" stroke-linecap="round" stroke-linejoin="round"/>
</g>
<defs>
<filter id="filter0_dd_262_2786" x="0" y="0" width="34" height="34" filterUnits="userSpaceOnUse" color-interpolation-filters="sRGB">
<feFlood flood-opacity="0" result="BackgroundImageFix"/>
<feColorMatrix in="SourceAlpha" type="matrix" values="0 0 0 0 0 0 0 0 0 0 0 0 0 0 0 0 0 0 127 0" result="hardAlpha"/>
<feOffset dy="4"/>
<feGaussianBlur stdDeviation="2"/>
<feComposite in2="hardAlpha" operator="out"/>
<feColorMatrix type="matrix" values="0 0 0 0 0 0 0 0 0 0 0 0 0 0 0 0 0 0 0.25 0"/>
<feBlend mode="normal" in2="BackgroundImageFix" result="effect1_dropShadow_262_2786"/>
<feColorMatrix in="SourceAlpha" type="matrix" values="0 0 0 0 0 0 0 0 0 0 0 0 0 0 0 0 0 0 127 0" result="hardAlpha"/>
<feOffset dy="4"/>
<feGaussianBlur stdDeviation="2"/>
<feComposite in2="hardAlpha" operator="out"/>
<feColorMatrix type="matrix" values="0 0 0 0 0 0 0 0 0 0 0 0 0 0 0 0 0 0 0.25 0"/>
<feBlend mode="normal" in2="effect1_dropShadow_262_2786" result="effect2_dropShadow_262_2786"/>
<feBlend mode="normal" in="SourceGraphic" in2="effect2_dropShadow_262_2786" result="shape"/>
</filter>
</defs>
</svg>
